<svg width="20" height="20" viewBox="0 0 20 20" fill="none" xmlns="http://www.w3.org/2000/svg">
<path d="M15.4581 10.8618L13.3146 13.0053C13.1847 13.1222 13.0386 13.2034 12.8762 13.2488C12.7138 13.2943 12.5481 13.2911 12.3793 13.2391L10.2747 12.635L10.1968 12.5766L10.1578 12.6155L9.2809 12.3622C9.125 12.3232 8.98859 12.2453 8.87167 12.1284C8.75475 12.0115 8.6768 11.875 8.63783 11.7191L8.3845 10.8423L8.42347 10.8033L8.36501 10.7253L7.76094 8.62079C7.70897 8.4519 7.70573 8.28627 7.7512 8.12388C7.79668 7.9615 7.87787 7.81535 7.99478 7.68544L10.1383 5.54194C10.3332 5.36006 10.5605 5.26912 10.8203 5.26912C10.9112 5.26912 10.9957 5.28211 11.0736 5.3081L11.9116 5.54194L9.51472 7.93877L10.0993 10.9007L13.0613 11.4853L15.4581 9.08848L15.6919 9.92639C15.7439 10.0953 15.7472 10.2609 15.7017 10.4233C15.6562 10.5857 15.575 10.7319 15.4581 10.8618ZM16.9196 9.57567L16.5688 8.34801C16.5169 8.16613 16.4259 8.01349 16.296 7.89008C16.1661 7.76667 16.0135 7.68223 15.8381 7.63675C15.6627 7.59127 15.4873 7.59127 15.312 7.63675C15.1366 7.68223 14.9839 7.76991 14.854 7.89981L12.6521 10.1018L11.1906 9.80947L10.8983 8.34799L13.1002 6.14603C13.2302 6.01612 13.3178 5.86348 13.3633 5.6881C13.4088 5.51272 13.4088 5.33735 13.3633 5.16197C13.3178 4.9866 13.2334 4.83395 13.11 4.70404C12.9865 4.57413 12.8339 4.48319 12.652 4.43122L11.4244 4.08046C11.0347 3.97653 10.6449 3.97328 10.2552 4.07073C9.86545 4.16817 9.52768 4.35978 9.24189 4.64558L7.09838 6.78908C6.81259 7.07488 6.62097 7.41264 6.52353 7.80238C6.42609 8.19212 6.42933 8.58185 6.53326 8.97157L6.96195 10.4915L4 13.4535L4.87689 14.3498L7.35167 11.8751L7.41013 12.0504C7.51407 12.4272 7.70243 12.752 7.97524 13.0248C8.24804 13.2976 8.57282 13.486 8.94956 13.5899L9.12495 13.6483L6.65016 16.1231L7.54654 17L10.5085 14.038L12.0284 14.4667C12.2233 14.5187 12.4247 14.5447 12.6325 14.5447C12.9313 14.5447 13.2171 14.4895 13.4899 14.3791C13.7627 14.2686 14.0031 14.1095 14.2109 13.9016L16.3544 11.7581C16.6402 11.4723 16.8318 11.1346 16.9293 10.7448C17.0267 10.3551 17.0235 9.96539 16.9196 9.57567Z" fill="#ffffff"/>
</svg>
