<svg width="20" height="20" viewBox="0 0 20 20" fill="none" xmlns="http://www.w3.org/2000/svg">
<path d="M3.24212 6.34431H16.7579C16.9678 6.34431 17.1439 6.25283 17.2863 6.06986C17.4288 5.8869 17.5 5.671 17.5 5.42215C17.5 5.17331 17.4288 4.95741 17.2863 4.77445C17.1439 4.59148 16.9678 4.5 16.7579 4.5H3.24212C3.03222 4.5 2.85606 4.59148 2.71364 4.77445C2.57121 4.95741 2.5 5.17331 2.5 5.42215C2.5 5.671 2.57121 5.8869 2.71364 6.06986C2.85606 6.25283 3.03222 6.34431 3.24212 6.34431ZM16.7579 13.6557H3.24214C3.03225 13.6557 2.85608 13.7472 2.71366 13.9301C2.57123 14.1131 2.50002 14.329 2.50002 14.5778C2.50002 14.8267 2.57123 15.0426 2.71366 15.2256C2.85608 15.4085 3.03225 15.5 3.24214 15.5H16.7579C16.9678 15.5 17.1439 15.4085 17.2864 15.2256C17.4288 15.0426 17.5 14.8267 17.5 14.5778C17.5 14.329 17.4288 14.1131 17.2864 13.9301C17.1439 13.7472 16.9678 13.6557 16.7579 13.6557ZM16.7579 9.08881H3.24214C3.03225 9.08881 2.85608 9.17664 2.71366 9.35229C2.57123 9.52794 2.50002 9.74385 2.50002 10C2.50002 10.2562 2.57123 10.4721 2.71366 10.6477C2.85608 10.8234 3.03225 10.9112 3.24214 10.9112H16.7579C16.9678 10.9112 17.1439 10.8234 17.2864 10.6477C17.4288 10.4721 17.5 10.2562 17.5 10C17.5 9.74385 17.4288 9.52794 17.2864 9.35229C17.1439 9.17664 16.9678 9.08881 16.7579 9.08881Z" fill="currentColor"/>
</svg>
