<svg width="389" height="47" viewBox="0 0 389 47" fill="none" xmlns="http://www.w3.org/2000/svg">
<g clip-path="url(#clip0_7_12)">
<path d="M226.106 36.486C225.798 36.5631 224.566 36.5631 224.028 36.5631H184.304V45.8114H224.72C225.028 45.8114 227.415 45.8113 227.877 45.7343C236.114 44.9636 239.886 38.1045 239.886 32.0931C239.886 25.9276 235.96 19.2996 228.493 18.606C227.03 18.4519 225.798 18.4519 225.259 18.4519H198.854C197.699 18.4519 196.39 18.3748 195.928 18.2207C193.85 17.6812 193.08 15.8315 193.08 14.2901C193.08 12.9029 193.85 11.0532 196.005 10.4367C196.621 10.2826 197.314 10.2055 198.777 10.2055H236.884V1.11136H198.161C196.544 1.11136 195.312 1.18843 194.312 1.34257C187.691 2.2674 183.072 7.58515 183.072 14.3672C183.072 19.9162 186.536 26.39 194.158 27.4689C195.543 27.6231 197.468 27.6231 198.315 27.6231H224.028C224.489 27.6231 225.644 27.6231 225.875 27.7001C228.801 28.0855 229.801 30.2434 229.801 32.1701C229.801 34.0198 228.647 36.0236 226.106 36.486Z" fill="black"/>
<path d="M150.815 36.486C150.507 36.5631 149.276 36.5631 148.814 36.5631H109.013V45.8114H149.43C149.738 45.8114 152.124 45.8113 152.586 45.7343C160.823 44.9636 164.596 38.1045 164.596 32.0931C164.596 25.9276 160.669 19.2996 153.202 18.606C151.739 18.4519 150.507 18.4519 149.969 18.4519H123.563C122.408 18.4519 121.099 18.3748 120.637 18.2207C118.559 17.6812 117.789 15.8315 117.789 14.2901C117.789 12.9029 118.559 11.0532 120.714 10.4367C121.33 10.2826 122.023 10.2055 123.486 10.2055H161.593V1.11136H122.87C121.253 1.11136 120.022 1.18843 119.021 1.34257C112.4 2.2674 107.781 7.58515 107.781 14.3672C107.781 19.9162 111.245 26.39 118.867 27.4689C120.253 27.6231 122.177 27.6231 123.024 27.6231H148.737C149.199 27.6231 150.353 27.6231 150.584 27.7001C153.51 28.0855 154.511 30.2434 154.511 32.1701C154.511 34.0198 153.433 36.0236 150.815 36.486Z" fill="black"/>
<path d="M88.3041 0.80307H78.2961V46.0426H88.3041V0.80307Z" fill="black"/>
<path d="M56.2016 46.0426V0.80307H46.1936V34.5593L12.8593 0.80307H0.00292969V46.0426H10.0109V12.1322L43.5761 46.0426H56.2016Z" fill="black"/>
<path d="M378.073 0.80307V34.5593L344.739 0.80307H331.883V46.0426H341.891V12.1322L375.379 46.0426H388.004V0.80307H378.073Z" fill="black"/>
<path d="M279.764 0.80307L251.588 46.0426H263.752L268.755 37.9503H301.628L306.632 46.0426H318.718L290.542 0.80307H279.764ZM296.47 29.3957H273.913L285.23 11.2074L296.47 29.3957Z" fill="black"/>
</g>
<defs>
<clipPath id="clip0_7_12">
<rect width="389" height="47" fill="white"/>
</clipPath>
</defs>
</svg>
