<svg width="20" height="20" viewBox="0 0 20 20" fill="none" xmlns="http://www.w3.org/2000/svg">
<path d="M16.9684 7.99315C16.8426 6.73519 16.4267 5.59159 15.7208 4.56236C15.015 3.53313 14.1099 2.74691 13.0056 2.2037C11.9013 1.66049 10.7341 1.43177 9.50409 1.51754C8.27403 1.60332 7.1488 1.99643 6.12839 2.69689C5.24777 3.29727 4.53838 4.06206 4.00023 4.99124C3.46208 5.92042 3.14059 6.92107 3.03574 7.99319C2.9309 9.06531 3.0567 10.1053 3.41316 11.1131C3.76962 12.1209 4.31826 13.0036 5.05909 13.7612L9.42024 18.2427C9.58798 18.4142 9.78367 18.5 10.0073 18.5C10.231 18.5 10.4266 18.4142 10.5944 18.2427L14.9346 13.7612C15.6754 13.0036 16.2241 12.1209 16.5805 11.1131C16.9369 10.1053 17.0662 9.06531 16.9684 7.99319V7.99315ZM13.7814 12.5818L10.0073 16.4629L6.21224 12.5818C5.65312 11.9957 5.23727 11.3167 4.9647 10.5448C4.69213 9.77286 4.59428 8.97592 4.67115 8.15396C4.74803 7.332 4.99614 6.56364 5.41549 5.84889C5.83484 5.13414 6.37999 4.54805 7.05092 4.09061C7.94553 3.47593 8.92748 3.16859 9.9968 3.16859C11.0661 3.16859 12.0481 3.47593 12.9427 4.09061C13.6136 4.54805 14.1588 5.13057 14.5781 5.83818C14.9974 6.54579 15.2456 7.31058 15.3224 8.13254C15.3993 8.95449 15.305 9.75501 15.0394 10.5341C14.7738 11.3132 14.3545 11.9957 13.7814 12.5818ZM10.0073 4.92687C9.33634 4.92687 8.71432 5.0984 8.14122 5.44148C7.56812 5.78455 7.11732 6.24556 6.78884 6.82452C6.46035 7.40347 6.29611 8.0396 6.29611 8.7329C6.29611 9.4262 6.46035 10.0623 6.78884 10.6413C7.11732 11.2202 7.56812 11.6812 8.14122 12.0243C8.71432 12.3674 9.33284 12.5389 9.9968 12.5389C10.6608 12.5389 11.2793 12.3674 11.8524 12.0243C12.4255 11.6812 12.8763 11.2202 13.2048 10.6413C13.5332 10.0623 13.6975 9.4262 13.6975 8.7329C13.6975 8.0396 13.5297 7.40347 13.1943 6.82452C12.8588 6.24556 12.408 5.78455 11.8419 5.44148C11.2758 5.0984 10.6573 4.92687 9.98632 4.92687H10.0073ZM10.0073 10.845C9.62989 10.845 9.28393 10.7485 8.96943 10.5555C8.65492 10.3625 8.40332 10.1052 8.21461 9.7836C8.02591 9.46196 7.93156 9.11174 7.93156 8.73292C7.93156 8.3541 8.02591 8.0003 8.21461 7.67152C8.40332 7.34274 8.65492 7.08544 8.96943 6.8996C9.28393 6.71376 9.6264 6.62084 9.99682 6.62084C10.3672 6.62084 10.7097 6.71376 11.0242 6.8996C11.3387 7.08544 11.5903 7.34274 11.779 7.67152C11.9677 8.0003 12.0621 8.3541 12.0621 8.73292C12.0621 9.11174 11.9677 9.46196 11.779 9.7836C11.5903 10.1052 11.3387 10.3625 11.0242 10.5555C10.7097 10.7485 10.3637 10.845 9.98634 10.845H10.0073H10.0073Z" fill="currentColor"/>
</svg>
