<svg width="20" height="20" viewBox="0 0 20 20" fill="none" xmlns="http://www.w3.org/2000/svg">
<path d="M15.6517 10.8325C15.5569 10.8325 15.4226 10.8084 15.2489 10.7601L15.1541 10.736C14.8065 10.6556 14.4748 10.551 14.1588 10.4223C13.7955 10.2775 13.4361 10.2815 13.0806 10.4343C12.7252 10.5872 12.4606 10.8486 12.2868 11.2187L12.1209 11.5807C11.3784 11.1463 10.7109 10.6113 10.1185 9.97583C9.5261 9.34033 9.02452 8.62842 8.61378 7.8401L8.92185 7.59877C9.26939 7.42179 9.51425 7.14426 9.65644 6.76618C9.79862 6.3881 9.80652 6.00601 9.68013 5.61989C9.56955 5.26595 9.47476 4.91201 9.39577 4.55805C9.34837 4.38107 9.31678 4.19606 9.30098 4.00301C9.20619 3.42383 8.94553 2.9452 8.519 2.56712C8.09246 2.18904 7.60273 2 7.04979 2H4.77491C4.44315 2 4.13114 2.0724 3.83888 2.2172C3.54662 2.362 3.28991 2.56713 3.06873 2.83258C2.84756 3.09804 2.68958 3.39568 2.59479 3.72549C2.5 4.0553 2.4763 4.39719 2.5237 4.75114C2.79227 7.03571 3.51107 9.14329 4.6801 11.0739C5.81753 12.9723 7.27093 14.5249 9.04029 15.7315C10.857 16.9703 12.8317 17.7265 14.9644 18H15.2488C15.8175 18 16.3231 17.7989 16.7654 17.3967C17.0024 17.1554 17.1841 16.8778 17.3104 16.5641C17.4368 16.2504 17.5 15.9246 17.5 15.5867V13.1734C17.5 12.5943 17.3223 12.0835 16.9668 11.641C16.6114 11.1986 16.173 10.9291 15.6517 10.8326L15.6517 10.8325ZM16.0308 15.6591C16.0308 15.9004 15.944 16.1015 15.7702 16.2624C15.5964 16.4233 15.391 16.4876 15.1541 16.4554C13.2425 16.198 11.4811 15.5143 9.86971 14.4042C8.27413 13.3263 6.97872 11.9346 5.98346 10.2292C4.94082 8.49166 4.30101 6.60126 4.06404 4.55803C4.04824 4.3167 4.11538 4.10352 4.26545 3.91851C4.41553 3.7335 4.60115 3.64099 4.82232 3.64099H7.09721C7.27099 3.6249 7.42897 3.67718 7.57115 3.79784C7.71334 3.9185 7.80023 4.08341 7.83182 4.29256C7.86342 4.50172 7.90291 4.71086 7.95031 4.92C8.0451 5.3383 8.16358 5.7566 8.30577 6.17491L7.23942 6.6817C7.04984 6.77824 6.91951 6.93108 6.84842 7.14024C6.77734 7.34939 6.78918 7.55854 6.88396 7.76768C7.42108 9.00648 8.14382 10.1085 9.05219 11.0739C9.96056 12.0392 10.9914 12.8114 12.1446 13.3906C12.3342 13.4871 12.5277 13.4952 12.7252 13.4147C12.9227 13.3343 13.0609 13.1895 13.1399 12.9803L13.6138 11.8461C14.0088 12.007 14.4037 12.1357 14.7987 12.2322C15.004 12.2805 15.2015 12.3207 15.3911 12.3529C15.5806 12.3851 15.7307 12.4776 15.8413 12.6304C15.9519 12.7833 16.0072 12.9562 16.0072 13.1493L16.0308 15.6591Z" fill="currentColor"/>
</svg>
