<svg width="20" height="20" viewBox="0 0 20 20" fill="none" xmlns="http://www.w3.org/2000/svg">
<path d="M16.1297 3H5.72746C5.32653 3 4.95528 3.10777 4.61373 3.32332C4.27218 3.53887 4.00117 3.83247 3.8007 4.20412C3.60023 4.57577 3.5 4.98457 3.5 5.43054V13.5695C3.5 14.0154 3.60023 14.4242 3.8007 14.7959C4.00117 15.1675 4.27218 15.4611 4.61373 15.6767C4.95528 15.8922 5.32653 16 5.72746 16H16.1297C16.5306 16 16.9019 15.8922 17.2434 15.6767C17.585 15.4611 17.856 15.1675 18.0564 14.7959C18.2569 14.4242 18.3571 14.0154 18.3571 13.5695V5.43054C18.3571 4.98457 18.2569 4.57577 18.0564 4.20412C17.856 3.83247 17.585 3.53887 17.2434 3.32332C16.9019 3.10777 16.5306 3 16.1297 3ZM5.72746 4.6278H16.1297C16.3376 4.6278 16.5121 4.70584 16.6531 4.86193C16.7942 5.01801 16.8647 5.20755 16.8647 5.43054L10.9397 9.39966L4.99239 5.43054C4.99239 5.20755 5.06292 5.01801 5.20399 4.86193C5.34506 4.70584 5.51956 4.6278 5.72746 4.6278ZM16.8647 13.5694C16.8647 13.7924 16.7942 13.982 16.6531 14.1381C16.5121 14.2941 16.3376 14.3722 16.1297 14.3722H5.72746C5.51956 14.3722 5.34508 14.2941 5.20401 14.1381C5.06294 13.982 4.99241 13.7924 4.99241 13.5694V7.28128L10.5388 11.0051C10.6576 11.0794 10.7838 11.1166 10.9174 11.1166C11.0511 11.1166 11.1773 11.0794 11.2961 11.0051L16.8648 7.28128L16.8647 13.5694Z" fill="currentColor"/>
</svg>
