<svg width="20" height="20" viewBox="0 0 20 20" fill="none" xmlns="http://www.w3.org/2000/svg">
<path d="M14.9822 6.24938C14.8287 6.08313 14.6401 6 14.4163 6C14.1925 6 14.0038 6.08313 13.8504 6.24938L7.88452 12.2152L5.39075 9.70229C5.28844 9.59998 5.16375 9.52964 5.01668 9.49128C4.86962 9.45291 4.72895 9.4561 4.59467 9.50086C4.46039 9.54561 4.3421 9.61915 4.23979 9.72146C4.13748 9.82377 4.06714 9.94526 4.02877 10.0859C3.99041 10.2266 3.99041 10.3673 4.02877 10.508C4.06714 10.6486 4.14387 10.7701 4.25897 10.8724L7.32822 13.9417C7.48169 14.1079 7.67032 14.1911 7.89412 14.1911C8.11791 14.1911 8.30655 14.1079 8.46001 13.9417L14.9822 7.41952C15.1612 7.26606 15.2507 7.07103 15.2507 6.83444C15.2507 6.59786 15.1612 6.40285 14.9822 6.24938Z" fill="currentColor"/>
</svg>
