<svg width="20" height="20" viewBox="0 0 20 20" fill="none" xmlns="http://www.w3.org/2000/svg">
<path d="M14.0599 4.33534C14.2834 4.11178 14.5509 4 14.8623 4C15.1736 4 15.4411 4.10778 15.6647 4.32335C15.8882 4.53891 16 4.7984 16 5.1018C16 5.4052 15.8882 5.66867 15.6647 5.89221L11.3533 9.98802L15.6647 14.1078C15.8882 14.3313 16 14.5948 16 14.8982C16 15.2016 15.8882 15.4611 15.6647 15.6767C15.4411 15.8922 15.1736 16 14.8623 16C14.5509 16 14.2834 15.8882 14.0599 15.6647L9.96407 11.7844L5.94013 15.6647C5.71658 15.8882 5.44911 16 5.13773 16C4.82636 16 4.55889 15.8922 4.33534 15.6767C4.11178 15.4611 4 15.2016 4 14.8982C4 14.5948 4.11178 14.3313 4.33534 14.1078L8.5988 9.98802L4.33534 5.89221C4.14372 5.70059 4.03992 5.47704 4.02395 5.22156L4 5.1018C4 4.7984 4.11178 4.53891 4.33534 4.32335C4.55889 4.10778 4.82636 4 5.13773 4C5.44911 4 5.71658 4.11178 5.94013 4.33534L9.96407 8.21557L14.0599 4.33534Z" fill="currentColor"/>
</svg>
