<svg width="20" height="20" viewBox="0 0 20 20" fill="none" xmlns="http://www.w3.org/2000/svg">
<path d="M10.0112 2.5C8.64691 2.5 7.38005 2.83733 6.21064 3.51199C5.0862 4.18666 4.18666 5.0862 3.51199 6.21064C2.83733 7.38005 2.5 8.64317 2.5 10C2.5 11.3568 2.83733 12.62 3.51199 13.7894C4.18666 14.9138 5.0862 15.8133 6.21064 16.488C7.38005 17.1627 8.64317 17.5 10 17.5C11.3568 17.5 12.62 17.1627 13.7894 16.488C14.9138 15.8133 15.8133 14.9138 16.488 13.7894C17.1627 12.62 17.5 11.3531 17.5 9.98877C17.5 8.99927 17.3088 8.04349 16.9265 7.12144C16.5442 6.19939 16.0045 5.38979 15.3074 4.69265C14.6102 3.9955 13.8006 3.45577 12.8786 3.07346C11.9565 2.69115 11.0007 2.5 10.0112 2.5ZM10.0112 15.9932C8.91679 15.9932 7.90854 15.7271 6.98651 15.1949C6.06447 14.6626 5.33733 13.9355 4.80509 13.0135C4.27285 12.0914 4.00674 11.0869 4.00674 9.99998C4.00674 8.91302 4.27285 7.90852 4.80509 6.98648C5.33733 6.06445 6.06447 5.33731 6.98651 4.80507C7.90854 4.27283 8.91304 4.00671 10 4.00671C11.087 4.00671 12.0915 4.27283 13.0135 4.80507C13.9355 5.33731 14.6627 6.06445 15.1949 6.98648C15.7271 7.90852 15.9933 8.91676 15.9933 10.0112C15.9933 10.8058 15.8433 11.5704 15.5435 12.3051C15.2436 13.0397 14.8126 13.6881 14.2504 14.2504C13.6882 14.8126 13.0397 15.2436 12.3051 15.5435C11.5704 15.8433 10.7983 15.9932 9.98874 15.9932H10.0112ZM10.0112 5.491C9.80133 5.491 9.62143 5.56597 9.47151 5.7159C9.3216 5.86582 9.24664 6.04573 9.24662 6.25562V9.24662H7.73989C7.54498 9.24662 7.37257 9.32158 7.22265 9.47151C7.07274 9.62144 6.99778 9.7976 6.99776 10C6.99775 10.2024 7.07271 10.3786 7.22265 10.5285C7.3726 10.6784 7.54501 10.7534 7.73989 10.7534H10.0113C10.2062 10.7534 10.3786 10.6784 10.5285 10.5285C10.6784 10.3786 10.7534 10.2061 10.7534 10.0113V6.25564C10.7534 6.04574 10.6784 5.86583 10.5285 5.71592C10.3786 5.566 10.2061 5.49102 10.0112 5.491Z" fill="currentColor"/>
</svg>
